<svg xmlns="http://www.w3.org/2000/svg">
<defs>
<font id="VisitorTT1BRK" horiz-adv-x="600" >
  <font-face 
    font-family="Visitor TT1 BRK"
    font-weight="400"
    font-stretch="normal"
    units-per-em="1000"
    panose-1="0 0 0 0 0 0 0 0 0 0"
    ascent="800"
    descent="-200"
    x-height="500"
    cap-height="500"
    bbox="0 -200 800 700"
    underline-thickness="50"
    underline-position="-75"
    unicode-range="U+0020-E001"
  />
<missing-glyph 
d="M0 0h500v500h-500v-500zM139 48h-3q0 1 -0.5 2t-0.5 2h-8q-1 6 -3.5 12.5t-9.5 6.5h-1q-12 -8 -20 -12t-22 -4q0 5 3 9.5t5 10.5h-10t-9 1q-2 0 -3 0.5t-3 0.5v2q0 5 2 7.5t4 6.5v3t2 4l0.5 1t1.5 1q8 5 8 15q0 5 -6.5 9.5t-10.5 9.5q-5 6 -6 15.5t-1 17.5v8q0 2 3 5
q2 1 9.5 7.5t9.5 7.5q1 1 1 4q0 14 -4.5 27t-4.5 27q0 6 1 10v20q0 6 -0.5 16.5t-1.5 20t-1.5 17l-0.5 7.5l-6 7v1q0 11 7 20t7 21v7h-1v1q-2 1 -3 4t-3 5v1q0 2 3 7t6.5 10t7 9t4.5 4h12q2 0 5 -5.5t11 -6.5h23q3 0 16.5 1.5t17.5 1.5q9 2 17 6l16 8q1 0 1.5 0.5t1.5 0.5
q2 0 11.5 -2t9.5 -4v-17q12 0 23 8t24 10h10q14 0 27 -2.5t27 -2.5h7q11 7 24 7q19 0 35 -8t35 -9v-9q0 -14 -4 -27t-4 -27v-7q0 -5 1.5 -11.5t6.5 -7.5v-19q0 -3 -0.5 -11t-1.5 -17t-2.5 -16.5t-2.5 -10.5q-2 -5 -4 -8.5t-2 -8.5q0 -7 3.5 -11.5t5.5 -11.5q0 -1 0.5 -5.5
t1 -9.5t1 -9.5t0.5 -5.5q1 -5 2.5 -10.5t6.5 -8.5q3 -14 3 -28v-3l-20 -23v-2q0 -14 4 -26.5t4 -26.5v-6q-6 -6 -17 -10t-20 -4q-5 0 -7 5t-6 7q-2 2 -8 4t-11 2h-3q-1 -5 -10.5 -11t-13.5 -6t-10 0.5t-9 4.5q-5 5 -11.5 5.5t-12.5 0.5q-24 0 -44 -8.5t-42 -8.5h-7
q-2 5 -6 6.5t-9 4.5q-2 0 -3.5 2l-1.5 2v8h-4q-4 -2 -11.5 -4t-12.5 -4q-2 -3 -6.5 -6.5t-8.5 -3.5zM303 120q7 0 10 -3t9 -5q3 0 5 -0.5t4 -0.5h23q5 0 21.5 1.5t21.5 1.5v39l-1.5 0.5t-2.5 1.5q-6 2 -10 2q-2 0 -3.5 -2t-3.5 -2q0 -1 -3 -1h-3q-6 0 -10 1.5t-10 2.5
q-2 0 -9 0.5t-15 0.5q-7 0 -14 0.5t-9 0.5q-1 0 -3 1t-4 1q0 1 -5 9l-5 8l-2 1.5t-3 2.5q-2 3 -1.5 7t-1.5 7t-6 3v3q0 5 5 8q4 0 15 1t22 1h37q7 0 21 1t20 6q-1 4 -1 7v5v16l0.5 2t0.5 3l-0.5 3t-0.5 4q0 2 -0.5 5.5t-1.5 4.5h-18q-6 0 -16.5 1t-15.5 -5h-38q-5 -8 -13 -8

<glyph glyph-name=".notdef" 
d="M0 0h500v500h-500v-500zM139 48h-3q0 1 -0.5 2t-0.5 2h-8q-1 6 -3.5 12.5t-9.5 6.5h-1q-12 -8 -20 -12t-22 -4q0 5 3 9.5t5 10.5h-10t-9 1q-2 0 -3 0.5t-3 0.5v2q0 5 2 7.5t4 6.5v3t2 4l0.5 1t1.5 1q8 5 8 15q0 5 -6.5 9.5t-10.5 9.5q-5 6 -6 15.5t-1 17.5v8q0 2 3 5
q2 1 9.5 7.5t9.5 7.5q1 1 1 4q0 14 -4.5 27t-4.5 27q0 6 1 10v20q0 6 -0.5 16.5t-1.5 20t-1.5 17l-0.5 7.5l-6 7v1q0 11 7 20t7 21v7h-1v1q-2 1 -3 4t-3 5v1q0 2 3 7t6.5 10t7 9t4.5 4h12q2 0 5 -5.5t11 -6.5h23q3 0 16.5 1.5t17.5 1.5q9 2 17 6l16 8q1 0 1.5 0.5t1.5 0.5
q2 0 11.5 -2t9.5 -4v-17q12 0 23 8t24 10h10q14 0 27 -2.5t27 -2.5h7q11 7 24 7q19 0 35 -8t35 -9v-9q0 -14 -4 -27t-4 -27v-7q0 -5 1.5 -11.5t6.5 -7.5v-19q0 -3 -0.5 -11t-1.5 -17t-2.5 -16.5t-2.5 -10.5q-2 -5 -4 -8.5t-2 -8.5q0 -7 3.5 -11.5t5.5 -11.5q0 -1 0.5 -5.5
t1 -9.5t1 -9.5t0.5 -5.5q1 -5 2.5 -10.5t6.5 -8.5q3 -14 3 -28v-3l-20 -23v-2q0 -14 4 -26.5t4 -26.5v-6q-6 -6 -17 -10t-20 -4q-5 0 -7 5t-6 7q-2 2 -8 4t-11 2h-3q-1 -5 -10.5 -11t-13.5 -6t-10 0.5t-9 4.5q-5 5 -11.5 5.5t-12.5 0.5q-24 0 -44 -8.5t-42 -8.5h-7
q-2 5 -6 6.5t-9 4.5q-2 0 -3.5 2l-1.5 2v8h-4q-4 -2 -11.5 -4t-12.5 -4q-2 -3 -6.5 -6.5t-8.5 -3.5zM303 120q7 0 10 -3t9 -5q3 0 5 -0.5t4 -0.5h23q5 0 21.5 1.5t21.5 1.5v39l-1.5 0.5t-2.5 1.5q-6 2 -10 2q-2 0 -3.5 -2t-3.5 -2q0 -1 -3 -1h-3q-6 0 -10 1.5t-10 2.5
q-2 0 -9 0.5t-15 0.5q-7 0 -14 0.5t-9 0.5q-1 0 -3 1t-4 1q0 1 -5 9l-5 8l-2 1.5t-3 2.5q-2 3 -1.5 7t-1.5 7t-6 3v3q0 5 5 8q4 0 15 1t22 1h37q7 0 21 1t20 6q-1 4 -1 7v5v16l0.5 2t0.5 3l-0.5 3t-0.5 4q0 2 -0.5 5.5t-1.5 4.5h-18q-6 0 -16.5 1t-15.5 -5h-38q-5 -8 -13 -8
q-2 0 -6 4q-1 4 -4 5.5t-5 3.5l-3 16q-7 4 -6 12.5t-7 11.5v14l4 3q11 8 23 10t27 2q7 0 10 -5.5t9 -6.5h35q1 2 5 3t8 1t7.5 0.5t3.5 1.5v21q-1 2 -2 3.5t-2 3.5q0 4 -1 13t-1 13l-0.5 4.5t-2.5 4.5q-5 0 -8 -3t-8 -4q-9 -3 -18.5 -5t-17.5 -2q-11 0 -20.5 1.5t-20.5 1.5
q-14 0 -27.5 -3t-28.5 -3h-15q-5 2 -7 4t-7 6h-1q-7 0 -12 -7t-9 -12q0 -2 -1.5 -4t-2.5 -4q-1 -1 -5 -9.5t-5 -10.5q-2 -2 -3 -3.5t-2 -2.5q-3 -2 -5.5 -2.5t-4.5 -1.5q-4 -2 -5 -4t-3 -3q-1 -2 -1 -6v-6v-1q0 -3 1.5 -5t1.5 -5t-1.5 -10.5t-2.5 -9.5t-1 -8t2 -7
q2 -8 5 -11t3 -10q0 -10 -2.5 -21t-6.5 -19q-2 -2 -3.5 -6.5t-3.5 -6.5q2 -1 1 -2t-3 -1q-7 -7 -8 -16.5t-2 -17.5q0 -4 -2 -4l-10 -11q-7 -2 -9 -6.5t-2 -10.5q0 -4 1 -3t6 -1q1 -1 1 -2l1 -1t3 -1q4 0 5.5 2.5t5.5 2.5q3 -3 6 -3l4 -2h21q3 5 9 7v29q0 2 3 5q1 1 4.5 4
t5.5 5v12q2 2 3 7t1 7q2 3 6 4t6 1h26q0 -1 -1.5 -3t-1.5 -4l5 -2q2 -1 4.5 -2.5l2.5 -1.5l5 -57q5 0 9.5 -1.5t9.5 -2.5q4 -2 3.5 -5.5t8.5 -3.5h6l32 7h3zM192 256v3q5 2 5 6q0 1 1 7t1 8t1 3.5t1 3.5v4q0 4 -2 7.5t-2 8.5h11q1 -5 5 -5v-9q0 -2 4 -1.5t3 -2.5
q0 -4 0.5 -11t0.5 -12v-15q-2 -3 -8 -7.5t-11 -4.5t-7.5 6t-2.5 11z" />
    <glyph glyph-name="space" unicode=" " 
 />
    <glyph glyph-name="exclam" unicode="!" horiz-adv-x="200" 
d="M0 200h100v300h-100v-300zM0 0h100v100h-100v-100z" />
    <glyph glyph-name="quotedbl" unicode="&#x22;" horiz-adv-x="400" 
d="M0 300h100v200h-100v-200zM200 300h100v200h-100v-200z" />
    <glyph glyph-name="numbersign" unicode="#" 
d="M300 0h100v100h100v100h-100v100h100v100h-100v100h-100v-100h-100v100h-100v-100h-100v-100h100v-100h-100v-100h100v-100h100v100h100v-100zM200 300h100v-100h-100v100z" />
    <glyph glyph-name="dollar" unicode="$" 
d="M0 500v-300h400v-100h-400v-100h200v-100h100v100h200v300h-400v100h400v100h-200v100h-100v-100h-200z" />
    <glyph glyph-name="percent" unicode="%" 
d="M200 200h100v-200h200v200h-200v100h-100v200h-200v-200h200v-100zM100 100h100v100h-100v-100zM0 0h100v100h-100v-100zM300 300h100v100h-100v-100zM400 400h100v100h-100v-100z" />
    <glyph glyph-name="ampersand" unicode="&#x26;" 
d="M200 500h-200v-500h200v-100h100v100h200v100h-400v100h400v100h-400v100h400v100h-200v100h-100v-100z" />
    <glyph glyph-name="quotesingle" unicode="'" horiz-adv-x="200" 
d="M0 300h100v200h-100v-200z" />
    <glyph glyph-name="parenleft" unicode="(" horiz-adv-x="300" 
d="M100 0h100v100h-100v300h-100v-300h100v-100zM100 400h100v100h-100v-100z" />
    <glyph glyph-name="parenright" unicode=")" horiz-adv-x="300" 
d="M100 100h100v300h-100v100h-100v-100h100v-300zM0 0h100v100h-100v-100z" />
    <glyph glyph-name="asterisk" unicode="*" 
d="M100 300h100v-100h100v100h100v-100h100v100h-100v100h-100v100h-100v-100h-100v100h-100v-100h100v-100zM400 400h100v100h-100v-100zM0 200h100v100h-100v-100z" />
    <glyph glyph-name="plus" unicode="+" 
d="M0 200h200v-200h100v200h200v100h-200v200h-100v-200h-200v-100z" />
    <glyph glyph-name="comma" unicode="," horiz-adv-x="200" 
d="M0 -100h100v200h-100v-200z" />
    <glyph glyph-name="minus" unicode="-" horiz-adv-x="400" 
d="M0 200v100h300v-100h-300z" />
    <glyph glyph-name="period" unicode="." horiz-adv-x="200" 
d="M0 0h100v100h-100v-100z" />
    <glyph glyph-name="slash" unicode="/" 
d="M0 0h100v100h-100v-100zM100 100h100v100h-100v-100zM200 200h100v100h-100v-100zM300 300h100v100h-100v-100zM400 400h100v100h-100v-100z" />
    <glyph glyph-name="zero" unicode="0" 
d="M0 0h500v500h-500v-500zM100 400h300v-300h-300v300z" />
    <glyph glyph-name="one" unicode="1" horiz-adv-x="300" 
d="M0 400h100v-400h100v500h-200v-100z" />
    <glyph glyph-name="two" unicode="2" 
d="M0 400h400v-100h-400v-300h500v100h-400v100h400v300h-500v-100z" />
    <glyph glyph-name="three" unicode="3" 
d="M0 400h400v-100h-200v-100h200v-100h-400v-100h500v500h-500v-100z" />
    <glyph glyph-name="four" unicode="4" 
d="M0 200h400v-200h100v500h-100v-200h-300v200h-100v-300z" />
    <glyph glyph-name="five" unicode="5" 
d="M0 500v-300h400v-100h-400v-100h500v300h-400v100h400v100h-500z" />
    <glyph glyph-name="six" unicode="6" 
d="M0 0h500v300h-400v100h400v100h-500v-500zM100 200h300v-100h-300v100z" />
    <glyph glyph-name="seven" unicode="7" 
d="M0 400h400v-400h100v500h-500v-100z" />
    <glyph glyph-name="eight" unicode="8" 
d="M0 0h500v500h-500v-500zM100 200h300v-100h-300v100zM100 400h300v-100h-300v100z" />
    <glyph glyph-name="nine" unicode="9" 
d="M0 200h400v-200h100v500h-500v-300zM100 400h300v-100h-300v100z" />
    <glyph glyph-name="colon" unicode=":" horiz-adv-x="200" 
d="M0 400h100v100h-100v-100zM0 0h100v100h-100v-100z" />
    <glyph glyph-name="semicolon" unicode=";" horiz-adv-x="200" 
d="M0 -100h100v200h-100v-200zM0 400h100v100h-100v-100z" />
    <glyph glyph-name="less" unicode="&#x3c;" horiz-adv-x="400" 
d="M100 100h100v-100h100v100h-100v100h-100v100h-100v-100h100v-100zM100 300h100v100h-100v-100zM200 400h100v100h-100v-100z" />
    <glyph glyph-name="equal" unicode="=" 
d="M0 300v100h500v-100h-500zM0 100v100h500v-100h-500z" />
    <glyph glyph-name="greater" unicode="&#x3e;" horiz-adv-x="400" 
d="M100 300h100v-100h100v100h-100v100h-100v100h-100v-100h100v-100zM100 100h100v100h-100v-100zM0 0h100v100h-100v-100z" />
    <glyph glyph-name="question" unicode="?" 
d="M0 400h400v-100h-200v-100h300v300h-500v-100zM200 0h100v100h-100v-100z" />
    <glyph glyph-name="at" unicode="@" 
d="M200 0h300v500h-500v-500h100v400h300v-100h-200v-300zM300 200h100v-100h-100v100z" />
    <glyph glyph-name="A" unicode="A" 
d="M400 0h100v500h-500v-500h100v200h300v-200zM100 400h300v-100h-300v100z" />
    <glyph glyph-name="B" unicode="B" 
d="M0 0h400v100h-300v100h300v-100h100v300h-100v100h-400v-500zM400 300h-300v100h300v-100z" />
    <glyph glyph-name="C" unicode="C" 
d="M0 0h500v100h-400v300h400v100h-500v-500z" />
    <glyph glyph-name="D" unicode="D" 
d="M0 0h400v100h-300v300h300v-300h100v300h-100v100h-400v-500z" />
    <glyph glyph-name="E" unicode="E" 
d="M0 0h500v100h-400v100h200v100h-200v100h400v100h-500v-500z" />
    <glyph glyph-name="F" unicode="F" 
d="M0 0h100v200h200v100h-200v100h400v100h-500v-500z" />
    <glyph glyph-name="G" unicode="G" 
d="M0 0h500v300h-300v-100h200v-100h-300v300h400v100h-500v-500z" />
    <glyph glyph-name="H" unicode="H" 
d="M400 0h100v500h-100v-200h-300v200h-100v-500h100v200h300v-200z" />
    <glyph glyph-name="I" unicode="I" 
d="M0 400h200v-300h-200v-100h500v100h-200v300h200v100h-500v-100z" />
    <glyph glyph-name="J" unicode="J" 
d="M0 0h500v500h-100v-400h-300v100h-100v-200z" />
    <glyph glyph-name="K" unicode="K" 
d="M300 100h100v-100h100v100h-100v100h-100v100h-200v200h-100v-500h100v200h200v-100zM400 300v100h-100v-100h100zM400 400h100v100h-100v-100z" />
    <glyph glyph-name="L" unicode="L" 
d="M0 0h500v100h-400v400h-100v-500z" />
    <glyph glyph-name="M" unicode="M" 
d="M100 300h100v-100h100v100h-100v100h-100v100h-100v-500h100v300zM400 0h100v500h-100v-100h-100v-100h100v-300z" />
    <glyph glyph-name="N" unicode="N" 
d="M100 300h100v-100h100v-100h100v-100h100v500h-100v-300h-100v100h-100v100h-100v100h-100v-500h100v300z" />
    <glyph glyph-name="O" unicode="O" 
d="M0 0h500v500h-500v-500zM100 400h300v-300h-300v300z" />
    <glyph glyph-name="P" unicode="P" 
d="M100 200h400v200h-100v100h-400v-500h100v200zM400 400v-100h-300v100h300z" />
    <glyph glyph-name="Q" unicode="Q" 
d="M0 0h200v-100h100v100h200v500h-500v-500zM300 200h-100v-100h-100v300h300v-300h-100v100z" />
    <glyph glyph-name="R" unicode="R" 
d="M0 0h100v200h200v-100h100v-100h100v100h-100v100h100v200h-100v100h-400v-500zM400 400v-100h-300v100h300z" />
    <glyph glyph-name="S" unicode="S" 
d="M0 200h400v-100h-400v-100h500v300h-400v100h400v100h-500v-300z" />
    <glyph glyph-name="T" unicode="T" 
d="M0 400h200v-400h100v400h200v100h-500v-100z" />
    <glyph glyph-name="U" unicode="U" 
d="M0 0h500v500h-100v-400h-300v400h-100v-500z" />
    <glyph glyph-name="V" unicode="V" 
d="M100 100h100v-100h100v100h-100v100h-100v300h-100v-300h100v-100zM400 200h100v300h-100v-300zM300 100h100v100h-100v-100z" />
    <glyph glyph-name="W" unicode="W" 
d="M300 100h100v-100h100v500h-100v-300h-100v100h-100v-100h100v-100zM100 100h100v100h-100v300h-100v-500h100v100z" />
    <glyph glyph-name="X" unicode="X" 
d="M100 300h100v-100h100v-100h100v-100h100v100h-100v100h-100v100h-100v100h-100v100h-100v-100h100v-100zM0 0h100v100h-100v-100zM100 100h100v100h-100v-100zM400 400h100v100h-100v-100zM300 300h100v100h-100v-100z" />
    <glyph glyph-name="Y" unicode="Y" 
d="M0 200h200v-200h100v200h200v300h-100v-200h-300v200h-100v-300z" />
    <glyph glyph-name="Z" unicode="Z" 
d="M0 400h300v-100h100v100h100v100h-500v-100zM0 0h500v100h-300v100h-100v-100h-100v-100zM200 200h100v100h-100v-100z" />
    <glyph glyph-name="bracketleft" unicode="[" horiz-adv-x="300" 
d="M0 0h200v100h-100v300h100v100h-200v-500z" />
    <glyph glyph-name="backslash" unicode="\" 
d="M100 300h100v-100h100v-100h100v-100h100v100h-100v100h-100v100h-100v100h-100v100h-100v-100h100v-100z" />
    <glyph glyph-name="bracketright" unicode="]" horiz-adv-x="300" 
d="M0 400h100v-300h-100v-100h200v500h-200v-100z" />
    <glyph glyph-name="asciicircum" unicode="^" horiz-adv-x="400" 
d="M200 300h100v100h-100v100h-100v-100h100v-100zM0 300h100v100h-100v-100z" />
    <glyph glyph-name="underscore" unicode="_" 
d="M0 -199v100h500v-100h-500z" />
    <glyph glyph-name="grave" unicode="`" horiz-adv-x="200" 
d="M0 300h100v200h-100v-200z" />
    <glyph glyph-name="a" unicode="a" 
d="M400 0h100v500h-500v-500h100v200h300v-200zM100 400h300v-100h-300v100z" />
    <glyph glyph-name="b" unicode="b" 
d="M400 300h100v200h-500v-500h500v200h-100v100zM400 200v-100h-300v100h300zM400 300h-300v100h300v-100z" />
    <glyph glyph-name="c" unicode="c" 
d="M0 0h500v100h-400v300h400v100h-500v-500z" />
    <glyph glyph-name="d" unicode="d" 
d="M0 0h400v100h-300v300h300v-300h100v300h-100v100h-400v-500z" />
    <glyph glyph-name="e" unicode="e" 
d="M0 0h500v100h-400v100h200v100h-200v100h400v100h-500v-500z" />
    <glyph glyph-name="f" unicode="f" 
d="M0 0h100v200h200v100h-200v100h400v100h-500v-500z" />
    <glyph glyph-name="g" unicode="g" 
d="M0 0h500v300h-300v-100h200v-100h-300v300h400v100h-500v-500z" />
    <glyph glyph-name="h" unicode="h" 
d="M400 0h100v500h-100v-200h-300v200h-100v-500h100v200h300v-200z" />
    <glyph glyph-name="i" unicode="i" horiz-adv-x="200" 
d="M0 0h100v500h-100v-500z" />
    <glyph glyph-name="j" unicode="j" 
d="M0 0h500v500h-100v-400h-300v100h-100v-200z" />
    <glyph glyph-name="k" unicode="k" 
d="M300 100h100v-100h100v100h-100v100h-100v100h-200v200h-100v-500h100v200h200v-100zM400 300v100h-100v-100h100zM400 400h100v100h-100v-100z" />
    <glyph glyph-name="l" unicode="l" 
d="M0 0h500v100h-400v400h-100v-500z" />
    <glyph glyph-name="m" unicode="m" 
d="M200 0h100v400h100v-400h100v500h-500v-500h100v400h100v-400z" />
    <glyph glyph-name="n" unicode="n" 
d="M400 0h100v500h-500v-500h100v400h300v-400z" />
    <glyph glyph-name="o" unicode="o" 
d="M0 0h500v500h-500v-500zM100 400h300v-300h-300v300z" />
    <glyph glyph-name="p" unicode="p" 
d="M0 0h100v200h400v300h-500v-500zM100 400h300v-100h-300v100z" />
    <glyph glyph-name="q" unicode="q" 
d="M0 0h200v-100h100v100h200v500h-500v-500zM300 200h-100v-100h-100v300h300v-300h-100v100z" />
    <glyph glyph-name="r" unicode="r" 
d="M300 100h100v-100h100v100h-100v100h100v300h-500v-500h100v200h200v-100zM100 400h300v-100h-300v100z" />
    <glyph glyph-name="s" unicode="s" 
d="M0 200h400v-100h-400v-100h500v300h-400v100h400v100h-500v-300z" />
    <glyph glyph-name="t" unicode="t" 
d="M0 400h200v-400h100v400h200v100h-500v-100z" />
    <glyph glyph-name="u" unicode="u" 
d="M0 0h500v500h-100v-400h-300v400h-100v-500z" />
    <glyph glyph-name="v" unicode="v" 
d="M100 100h100v-100h100v100h-100v100h-100v300h-100v-300h100v-100zM400 200h100v300h-100v-300zM300 100h100v100h-100v-100z" />
    <glyph glyph-name="w" unicode="w" 
d="M0 0h500v500h-100v-400h-100v400h-100v-400h-100v400h-100v-500z" />
    <glyph glyph-name="x" unicode="x" 
d="M100 300h100v-100h100v-100h100v-100h100v100h-100v100h-100v100h-100v100h-100v100h-100v-100h100v-100zM0 0h100v100h-100v-100zM100 100h100v100h-100v-100zM400 400h100v100h-100v-100zM300 300h100v100h-100v-100z" />
    <glyph glyph-name="y" unicode="y" 
d="M100 300h100v-300h100v300h-100v100h-100v100h-100v-100h100v-100zM400 400h100v100h-100v-100zM300 300h100v100h-100v-100z" />
    <glyph glyph-name="z" unicode="z" 
d="M0 400h300v-100h100v100h100v100h-500v-100zM0 0h500v100h-300v100h-100v-100h-100v-100zM200 200h100v100h-100v-100z" />
    <glyph glyph-name="braceleft" unicode="{" horiz-adv-x="400" 
d="M0 200h100v-200h200v100h-100v300h100v100h-200v-200h-100v-100z" />
    <glyph glyph-name="bar" unicode="|" horiz-adv-x="200" 
d="M0 -200h100v900h-100v-900z" />
    <glyph glyph-name="braceright" unicode="}" horiz-adv-x="400" 
d="M0 400h100v-300h-100v-100h200v200h100v100h-100v200h-200v-100z" />
    <glyph glyph-name="asciitilde" unicode="~" 
d="M200 100h300v200h-100v-100h-100v200h-300v-200h100v100h100v-200z" />
    <glyph glyph-name=".0127" 
d="M0 0h500v500h-500v-500zM100 400h300v-300h-300v300zM200 200h100v100h-100v-100z" />
    <glyph glyph-name=".0128" 
d="M0 0h500v500h-500v-500zM100 400h300v-300h-300v300zM200 200h100v100h-100v-100z" />
    <glyph glyph-name=".0129" 
d="M0 0h500v500h-500v-500zM100 400h300v-300h-300v300zM200 200h100v100h-100v-100z" />
    <glyph glyph-name="quotesinglbase" unicode="&#x201a;" horiz-adv-x="200" 
d="M0 -100h100v200h-100v-200z" />
    <glyph glyph-name="florin" unicode="&#x192;" 
d="M0 0h200v200h100v100h-100v100h300v100h-400v-200h-100v-100h100v-100h-100v-100z" />
    <glyph glyph-name="quotedblbase" unicode="&#x201e;" horiz-adv-x="400" 
d="M0 -100h100v200h-100v-200zM200 -100h100v200h-100v-200z" />
    <glyph glyph-name="ellipsis" unicode="&#x2026;" 
d="M0 0h100v100h-100v-100zM200 0h100v100h-100v-100zM400 0h100v100h-100v-100z" />
    <glyph glyph-name="dagger" unicode="&#x2020;" 
d="M0 400v100h200v200h100v-200h200v-100h-200v-599h-100v599h-200z" />
    <glyph glyph-name="daggerdbl" unicode="&#x2021;" 
d="M0 0h200v-200h100v200h200v100h-200v300h200v100h-200v200h-100v-200h-200v-100h200v-300h-200v-100z" />
    <glyph glyph-name="circumflex" unicode="&#x2c6;" horiz-adv-x="400" 
d="M200 500h100v100h-100v100h-100v-100h100v-100zM0 500h100v100h-100v-100z" />
    <glyph glyph-name="perthousand" unicode="&#x2030;" horiz-adv-x="900" 
d="M200 200h100v-200h200v200h-200v100h-100v200h-200v-200h200v-100zM600 0h200v200h-200v-200zM100 100h100v100h-100v-100zM0 0h100v100h-100v-100zM300 300h100v100h-100v-100zM400 400h100v100h-100v-100z" />
    <glyph glyph-name="Scaron" unicode="&#x160;" 
d="M100 600h100v-100h-200v-300h400v-100h-400v-100h500v300h-400v100h400v100h-200v100h-100v100h-100v-100zM300 600h100v100h-100v-100z" />
    <glyph glyph-name="guilsinglleft" unicode="&#x2039;" horiz-adv-x="300" 
d="M100 100h100v100h-100v100h-100v-100h100v-100zM100 300h100v100h-100v-100z" />
    <glyph glyph-name="OE" unicode="&#x152;" 
d="M0 0h500v100h-200v100h200v100h-200v100h200v100h-500v-500zM100 400h100v-300h-100v300z" />
    <glyph glyph-name=".0141" 
d="M0 0h500v500h-500v-500zM100 400h300v-300h-300v300zM200 200h100v100h-100v-100z" />
    <glyph glyph-name=".0142" 
d="M0 0h500v500h-500v-500zM100 400h300v-300h-300v300zM200 200h100v100h-100v-100z" />
    <glyph glyph-name=".0143" 
d="M0 0h500v500h-500v-500zM100 400h300v-300h-300v300zM200 200h100v100h-100v-100z" />
    <glyph glyph-name=".0144" 
d="M0 0h500v500h-500v-500zM100 400h300v-300h-300v300zM200 200h100v100h-100v-100z" />
    <glyph glyph-name="quoteleft" unicode="&#x2018;" horiz-adv-x="200" 
d="M0 500h100v200h-100v-200z" />
    <glyph glyph-name="quoteright" unicode="&#x2019;" horiz-adv-x="200" 
d="M0 500h100v200h-100v-200z" />
    <glyph glyph-name="quotedblleft" unicode="&#x201c;" horiz-adv-x="400" 
d="M0 500h100v200h-100v-200zM200 500h100v200h-100v-200z" />
    <glyph glyph-name="quotedblright" unicode="&#x201d;" horiz-adv-x="400" 
d="M0 500h100v200h-100v-200zM200 500h100v200h-100v-200z" />
    <glyph glyph-name="bullet" unicode="&#x2022;" 
d="M0 200h100v-100h100v-100h100v100h100v100h100v100h-100v100h-100v100h-100v-100h-100v-100h-100v-100z" />
    <glyph glyph-name="endash" unicode="&#x2013;" horiz-adv-x="300" 
d="M0 200v100h200v-100h-200z" />
    <glyph glyph-name="emdash" unicode="&#x2014;" horiz-adv-x="500" 
d="M0 200v100h400v-100h-400z" />
    <glyph glyph-name="tilde" unicode="&#x2dc;" 
d="M100 600h100v-100h300v200h-100v-100h-100v100h-300v-200h100v100z" />
    <glyph glyph-name="trademark" unicode="&#x2122;" 
d="M0 600h200v-300h100v300h200v100h-500v-100zM100 0h100v-100h100v100h-100v100h-100v100h-100v-400h100v200zM300 0h100v-200h100v400h-100v-100h-100v-100z" />
    <glyph glyph-name="scaron" unicode="&#x161;" 
d="M100 600h100v-100h-200v-300h400v-100h-400v-100h500v300h-400v100h400v100h-200v100h-100v100h-100v-100zM300 600h100v100h-100v-100z" />
    <glyph glyph-name="guilsinglright" unicode="&#x203a;" horiz-adv-x="300" 
d="M100 200h100v100h-100v100h-100v-100h100v-100zM0 100h100v100h-100v-100z" />
    <glyph glyph-name="oe" unicode="&#x153;" 
d="M0 0h500v100h-200v100h200v100h-200v100h200v100h-500v-500zM100 400h100v-300h-100v300z" />
    <glyph glyph-name=".0157" 
d="M0 0h500v500h-500v-500zM100 400h300v-300h-300v300zM200 200h100v100h-100v-100z" />
    <glyph glyph-name=".0158" 
d="M0 0h500v500h-500v-500zM100 400h300v-300h-300v300zM200 200h100v100h-100v-100z" />
    <glyph glyph-name="Ydieresis" unicode="&#x178;" 
d="M300 500h100v-200h-300v200h100v200h-200v-500h200v-200h100v200h200v500h-200v-200z" />
    <glyph glyph-name=".0160" unicode="&#xa0;" 
 />
    <glyph glyph-name="exclamdown" unicode="&#xa1;" horiz-adv-x="200" 
d="M0 0h100v300h-100v-300zM0 400h100v100h-100v-100z" />
    <glyph glyph-name="cent" unicode="&#xa2;" 
d="M0 0h200v-100h100v100h200v100h-400v300h400v100h-200v100h-100v-100h-200v-500z" />
    <glyph glyph-name="sterling" unicode="&#xa3;" 
d="M0 400h100v-100h-100v-100h100v-100h-100v-100h500v100h-300v100h100v100h-100v100h200v-100h100v100h-100v100h-400v-100z" />
    <glyph glyph-name="currency" unicode="&#xa4;" 
d="M100 400v-300h300v-100h100v100h-100v300h-300zM400 400h100v100h-100v-100zM0 0h100v100h-100v-100zM300 200h-100v100h100v-100zM100 400v100h-100v-100h100z" />
    <glyph glyph-name="yen" unicode="&#xa5;" 
d="M0 300h100v-100h100v-100h-100v-100h300v100h-100v100h100v100h100v200h-100v-100h-300v100h-100v-200z" />
    <glyph glyph-name="brokenbar" unicode="&#xa6;" horiz-adv-x="200" 
d="M0 300h100v400h-100v-400zM0 -200h100v400h-100v-400z" />
    <glyph glyph-name="section" unicode="&#xa7;" 
d="M0 100h400v-100h-400v-100h500v500h-400v100h400v100h-500v-500zM400 300v-100h-300v100h300z" />
    <glyph glyph-name="dieresis" unicode="&#xa8;" 
d="M0 500v200h200v-200h-200zM300 500v200h200v-200h-200z" />
    <glyph glyph-name="copyright" unicode="&#xa9;" 
d="M100 -100h300v100h-300v100h300v-100h100v500h-100v100h-300v-100h300v-100h-300v100h-100v-500h100v-100zM400 300v-100h-200v100h200z" />
    <glyph glyph-name="ordfeminine" unicode="&#xaa;" horiz-adv-x="300" 
d="M0 600h100v-100h-100v-200h200v400h-200v-100z" />
    <glyph glyph-name="guillemotleft" unicode="&#xab;" 
d="M100 100h100v100h-100v100h-100v-100h100v-100zM400 100h100v100h-100v100h-100v-100h100v-100zM400 300h100v100h-100v-100zM100 300h100v100h-100v-100z" />
    <glyph glyph-name="logicalnot" unicode="&#xac;" 
d="M0 300v100h500v-200h-100v100h-400z" />
    <glyph glyph-name="hyphen" unicode="&#xad;" 
d="M0 200v100h500v-100h-500z" />
    <glyph glyph-name="registered" unicode="&#xae;" 
d="M100 500h-100v-500h100v-100h300v100h-300v100h100v100h100v-100h100v-100h100v500h-100v100h-300v-100zM100 500h300v-100h-300v100zM400 300v-100h-100v100h100z" />
    <glyph glyph-name="macron" unicode="&#xaf;" 
d="M0 600v100h500v-100h-500z" />
    <glyph glyph-name="degree" unicode="&#xb0;" horiz-adv-x="400" 
d="M0 400h300v300h-300v-300zM100 600h100v-100h-100v100z" />
    <glyph glyph-name="plusminus" unicode="&#xb1;" 
d="M0 300h200v-100h100v100h200v100h-200v100h-100v-100h-200v-100zM0 0h500v100h-500v-100z" />
    <glyph glyph-name="twosuperior" unicode="&#xb2;" horiz-adv-x="400" 
d="M0 500h200v-100h100v-100h-300v200zM0 600v100h300v-200h-100v100h-200z" />
    <glyph glyph-name="threesuperior" unicode="&#xb3;" horiz-adv-x="400" 
d="M0 600h100v-100h100v-100h-200v-100h300v400h-300v-100z" />
    <glyph glyph-name="acute" unicode="&#xb4;" horiz-adv-x="300" 
d="M0 500h100v100h-100v-100zM100 600h100v100h-100v-100z" />
    <glyph glyph-name="mu" unicode="&#xb5;" 
d="M0 0h500v500h-100v-400h-300v400h-100v-500zM0 -200h100v200h-100v-200z" />
    <glyph glyph-name="paragraph" unicode="&#xb6;" 
d="M0 200h200v-200h100v400h100v-400h100v500h-500v-300z" />
    <glyph glyph-name="periodcentered" unicode="&#xb7;" horiz-adv-x="400" 
d="M0 100v300h300v-300h-300z" />
    <glyph glyph-name="periodcentered" unicode="&#x2219;" horiz-adv-x="400" 
d="M0 100v300h300v-300h-300z" />
    <glyph glyph-name="cedilla" unicode="&#xb8;" horiz-adv-x="300" 
d="M0 -200h200v200h-100v-100h-100v-100z" />
    <glyph glyph-name="onesuperior" unicode="&#xb9;" horiz-adv-x="300" 
d="M100 300h100v400h-100v-100h-100v-100h100v-200z" />
    <glyph glyph-name="ordmasculine" unicode="&#xba;" horiz-adv-x="400" 
d="M0 300h300v400h-300v-400zM100 600h100v-200h-100v200z" />
    <glyph glyph-name="guillemotright" unicode="&#xbb;" 
d="M100 200h100v100h-100v100h-100v-100h100v-100zM400 200h100v100h-100v100h-100v-100h100v-100zM300 100h100v100h-100v-100zM0 100h100v100h-100v-100z" />
    <glyph glyph-name="onequarter" unicode="&#xbc;" 
d="M300 300h100v-200h-100v200h-100v-100h-100v400h-100v-400h100v-100h100v-100h200v-100h100v400h-100v100h-100v-100zM400 400h100v100h-100v-100zM0 0h100v100h-100v-100z" />
    <glyph glyph-name="onehalf" unicode="&#xbd;" 
d="M200 -100h300v100h-100v100h-200v100h-100v400h-100v-400h100v-100h100v-200zM200 200h200v-100h100v200h-100v100h-100v-100h-100v-100zM0 0h100v100h-100v-100zM400 400h100v100h-100v-100z" />
    <glyph glyph-name="threequarters" unicode="&#xbe;" 
d="M0 500h100v-100h100v-100h-200v-100h100v-100h100v-100h200v-100h100v400h-100v100h-100v200h-300v-100zM300 300h100v-200h-100v200zM0 0h100v100h-100v-100zM400 400h100v100h-100v-100z" />
    <glyph glyph-name="questiondown" unicode="&#xbf;" 
d="M0 0h500v100h-400v100h200v100h-300v-300zM200 400h100v100h-100v-100z" />
    <glyph glyph-name="Agrave" unicode="&#xc0;" 
d="M100 600h100v-100h-200v-500h100v200h300v-200h100v500h-200v100h-100v100h-100v-100zM100 400h300v-100h-300v100z" />
    <glyph glyph-name="Aacute" unicode="&#xc1;" 
d="M200 500h-200v-500h100v200h300v-200h100v500h-200v100h-100v-100zM100 400h300v-100h-300v100zM300 600h100v100h-100v-100z" />
    <glyph glyph-name="Acircumflex" unicode="&#xc2;" 
d="M200 600h-100v-100h-100v-500h100v200h300v-200h100v500h-100v100h-100v100h-100v-100zM100 400h300v-100h-300v100zM200 600h100v-100h-100v100z" />
    <glyph glyph-name="Atilde" unicode="&#xc3;" 
d="M400 0h100v700h-100v-100h-100v100h-300v-700h100v200h300v-200zM100 400h300v-100h-300v100zM100 600h100v-100h-100v100z" />
    <glyph glyph-name="Adieresis" unicode="&#xc4;" 
d="M400 0h100v700h-200v-200h-100v200h-200v-700h100v200h300v-200zM100 400h300v-100h-300v100z" />
    <glyph glyph-name="Aring" unicode="&#xc5;" 
d="M100 500h-100v-500h100v200h300v-200h100v500h-100v200h-300v-200zM100 400h300v-100h-300v100zM300 500h-100v100h100v-100z" />
    <glyph glyph-name="AE" unicode="&#xc6;" 
d="M200 0h300v100h-200v100h200v100h-200v100h200v100h-500v-500h100v200h100v-200zM100 400h100v-100h-100v100z" />
    <glyph glyph-name="Ccedilla" unicode="&#xc7;" 
d="M0 0h200v-100h-100v-100h200v200h200v100h-400v300h400v100h-500v-500z" />
    <glyph glyph-name="Egrave" unicode="&#xc8;" 
d="M100 600h100v-100h-200v-500h500v100h-400v100h200v100h-200v100h400v100h-200v100h-100v100h-100v-100z" />
    <glyph glyph-name="Eacute" unicode="&#xc9;" 
d="M0 0h500v100h-400v100h200v100h-200v100h400v100h-200v100h-100v-100h-200v-500zM300 600h100v100h-100v-100z" />
    <glyph glyph-name="Ecircumflex" unicode="&#xca;" 
d="M200 600h-100v-100h-100v-500h500v100h-400v100h200v100h-200v100h400v100h-100v100h-100v100h-100v-100zM200 600h100v-100h-100v100z" />
    <glyph glyph-name="Edieresis" unicode="&#xcb;" 
d="M300 500h-100v200h-200v-700h500v100h-400v100h200v100h-200v100h400v300h-200v-200z" />
    <glyph glyph-name="Igrave" unicode="&#xcc;" 
d="M100 600h100v-100h-200v-100h200v-300h-200v-100h500v100h-200v300h200v100h-200v100h-100v100h-100v-100z" />
    <glyph glyph-name="Iacute" unicode="&#xcd;" 
d="M0 400h200v-300h-200v-100h500v100h-200v300h200v100h-200v100h-100v-100h-200v-100zM300 600h100v100h-100v-100z" />
    <glyph glyph-name="Icircumflex" unicode="&#xce;" 
d="M200 600h-100v-100h-100v-100h200v-300h-200v-100h500v100h-200v300h200v100h-100v100h-100v100h-100v-100zM200 600h100v-100h-100v100z" />
    <glyph glyph-name="Idieresis" unicode="&#xcf;" 
d="M0 700v-300h200v-300h-200v-100h500v100h-200v300h200v300h-200v-200h-100v200h-200z" />
    <glyph glyph-name="Eth" unicode="&#xd0;" 
d="M100 200h100v100h-100v100h300v-300h100v300h-100v100h-400v-500h400v100h-300v100z" />
    <glyph glyph-name="Ntilde" unicode="&#xd1;" 
d="M100 300h100v-100h100v-100h100v-100h100v700h-100v-100h-100v100h-300v-700h100v300zM100 600h100v-100h200v-300h-100v100h-100v100h-100v200z" />
    <glyph glyph-name="Ograve" unicode="&#xd2;" 
d="M100 600h100v-100h-200v-500h500v500h-200v100h-100v100h-100v-100zM100 400h300v-300h-300v300z" />
    <glyph glyph-name="Oacute" unicode="&#xd3;" 
d="M0 0h500v500h-200v100h-100v-100h-200v-500zM100 400h300v-300h-300v300zM300 600h100v100h-100v-100z" />
    <glyph glyph-name="Ocircumflex" unicode="&#xd4;" 
d="M200 600h-100v-100h-100v-500h500v500h-100v100h-100v100h-100v-100zM100 400h300v-300h-300v300zM200 600h100v-100h-100v100z" />
    <glyph glyph-name="Otilde" unicode="&#xd5;" 
d="M0 700v-700h500v700h-100v-100h-100v100h-300zM100 400h300v-300h-300v300zM100 600h100v-100h-100v100z" />
    <glyph glyph-name="Odieresis" unicode="&#xd6;" 
d="M0 700v-700h500v700h-200v-200h-100v200h-200zM100 400h300v-300h-300v300z" />
    <glyph glyph-name="multiply" unicode="&#xd7;" horiz-adv-x="400" 
d="M100 200h100v-100h100v100h-100v100h-100v100h-100v-100h100v-100zM0 100h100v100h-100v-100zM200 300h100v100h-100v-100z" />
    <glyph glyph-name="Oslash" unicode="&#xd8;" 
d="M0 0h500v500h-500v-500zM100 400h200v-100h100v-200h-200v100h-100v200zM200 200h100v100h-100v-100z" />
    <glyph glyph-name="Ugrave" unicode="&#xd9;" 
d="M0 0h500v500h-100v-400h-300v400h-100v-500zM100 600h100v-100h100v100h-100v100h-100v-100z" />
    <glyph glyph-name="Uacute" unicode="&#xda;" 
d="M0 0h500v500h-100v-400h-300v400h-100v-500zM200 500h100v100h-100v-100zM300 600h100v100h-100v-100z" />
    <glyph glyph-name="Ucircumflex" unicode="&#xdb;" 
d="M200 600h100v-100h100v-400h-300v400h-100v-500h500v500h-100v100h-100v100h-100v-100zM100 500h100v100h-100v-100z" />
    <glyph glyph-name="Udieresis" unicode="&#xdc;" 
d="M300 500h100v-400h-300v400h100v200h-200v-700h500v700h-200v-200z" />
    <glyph glyph-name="Yacute" unicode="&#xdd;" 
d="M0 200h200v-200h100v200h200v300h-100v-200h-300v200h-100v-300zM300 600h100v100h-100v-100zM200 500h100v100h-100v-100z" />
    <glyph glyph-name="Thorn" unicode="&#xde;" 
d="M0 -100h100v100h300v100h-300v300h300v-300h100v300h-100v100h-300v100h-100v-700z" />
    <glyph glyph-name="germandbls" unicode="&#xdf;" 
d="M0 0h100v200h300v-100h-200v-100h300v200h-100v100h-300v100h300v-100h100v200h-500v-500z" />
    <glyph glyph-name="agrave" unicode="&#xe0;" 
d="M100 600h100v-100h-200v-500h100v200h300v-200h100v500h-200v100h-100v100h-100v-100zM100 400h300v-100h-300v100z" />
    <glyph glyph-name="aacute" unicode="&#xe1;" 
d="M200 500h-200v-500h100v200h300v-200h100v500h-200v100h-100v-100zM100 400h300v-100h-300v100zM300 600h100v100h-100v-100z" />
    <glyph glyph-name="acircumflex" unicode="&#xe2;" 
d="M200 600h-100v-100h-100v-500h100v200h300v-200h100v500h-100v100h-100v100h-100v-100zM100 400h300v-100h-300v100zM200 600h100v-100h-100v100z" />
    <glyph glyph-name="atilde" unicode="&#xe3;" 
d="M400 0h100v700h-100v-100h-100v100h-300v-700h100v200h300v-200zM100 400h300v-100h-300v100zM100 600h100v-100h-100v100z" />
    <glyph glyph-name="adieresis" unicode="&#xe4;" 
d="M400 0h100v700h-200v-200h-100v200h-200v-700h100v200h300v-200zM100 400h300v-100h-300v100z" />
    <glyph glyph-name="aring" unicode="&#xe5;" 
d="M100 500h-100v-500h100v200h300v-200h100v500h-100v200h-300v-200zM100 400h300v-100h-300v100zM300 500h-100v100h100v-100z" />
    <glyph glyph-name="ae" unicode="&#xe6;" 
d="M200 0h300v100h-200v100h200v100h-200v100h200v100h-500v-500h100v200h100v-200zM100 400h100v-100h-100v100z" />
    <glyph glyph-name="ccedilla" unicode="&#xe7;" 
d="M0 0h200v-100h-100v-100h200v200h200v100h-400v300h400v100h-500v-500z" />
    <glyph glyph-name="egrave" unicode="&#xe8;" 
d="M100 600h100v-100h-200v-500h500v100h-400v100h200v100h-200v100h400v100h-200v100h-100v100h-100v-100z" />
    <glyph glyph-name="eacute" unicode="&#xe9;" 
d="M0 0h500v100h-400v100h200v100h-200v100h400v100h-200v100h-100v-100h-200v-500zM300 600h100v100h-100v-100z" />
    <glyph glyph-name="ecircumflex" unicode="&#xea;" 
d="M200 600h-100v-100h-100v-500h500v100h-400v100h200v100h-200v100h400v100h-100v100h-100v100h-100v-100zM200 600h100v-100h-100v100z" />
    <glyph glyph-name="edieresis" unicode="&#xeb;" 
d="M300 500h-100v200h-200v-700h500v100h-400v100h200v100h-200v100h400v300h-200v-200z" />
    <glyph glyph-name="igrave" unicode="&#xec;" horiz-adv-x="300" 
d="M0 0h100v500h-100v-500zM100 500h100v100h-100v100h-100v-100h100v-100z" />
    <glyph glyph-name="iacute" unicode="&#xed;" horiz-adv-x="300" 
d="M0 500h100v-500h100v500h-100v100h-100v-100zM100 600h100v100h-100v-100z" />
    <glyph glyph-name="icircumflex" unicode="&#xee;" horiz-adv-x="400" 
d="M0 500h100v-500h100v500h-100v100h-100v-100zM200 500h100v100h-100v100h-100v-100h100v-100z" />
    <glyph glyph-name="idieresis" unicode="&#xef;" horiz-adv-x="400" 
d="M0 500h100v-500h100v500h-100v200h-100v-200zM200 500h100v200h-100v-200z" />
    <glyph glyph-name="eth" unicode="&#xf0;" 
d="M100 200h100v100h-100v100h300v-300h100v300h-100v100h-400v-500h400v100h-300v100z" />
    <glyph glyph-name="ntilde" unicode="&#xf1;" 
d="M0 700v-700h100v400h300v-400h100v700h-100v-100h-100v100h-300zM100 600h100v-100h-100v100z" />
    <glyph glyph-name="ograve" unicode="&#xf2;" 
d="M100 600h100v-100h-200v-500h500v500h-200v100h-100v100h-100v-100zM100 400h300v-300h-300v300z" />
    <glyph glyph-name="oacute" unicode="&#xf3;" 
d="M0 0h500v500h-200v100h-100v-100h-200v-500zM100 400h300v-300h-300v300zM300 600h100v100h-100v-100z" />
    <glyph glyph-name="ocircumflex" unicode="&#xf4;" 
d="M200 600h-100v-100h-100v-500h500v500h-100v100h-100v100h-100v-100zM100 400h300v-300h-300v300zM200 600h100v-100h-100v100z" />
    <glyph glyph-name="otilde" unicode="&#xf5;" 
d="M0 700v-700h500v700h-100v-100h-100v100h-300zM100 400h300v-300h-300v300zM100 600h100v-100h-100v100z" />
    <glyph glyph-name="odieresis" unicode="&#xf6;" 
d="M0 700v-700h500v700h-200v-200h-100v200h-200zM100 400h300v-300h-300v300z" />
    <glyph glyph-name="divide" unicode="&#xf7;" horiz-adv-x="400" 
d="M0 200h300v100h-300v-100zM100 400h100v100h-100v-100zM100 0h100v100h-100v-100z" />
    <glyph glyph-name="oslash" unicode="&#xf8;" 
d="M0 0h500v500h-500v-500zM100 400h200v-100h100v-200h-200v100h-100v200zM200 200h100v100h-100v-100z" />
    <glyph glyph-name="ugrave" unicode="&#xf9;" 
d="M0 0h500v500h-100v-400h-300v400h-100v-500zM100 600h100v-100h100v100h-100v100h-100v-100z" />
    <glyph glyph-name="uacute" unicode="&#xfa;" 
d="M0 0h500v500h-100v-400h-300v400h-100v-500zM200 500h100v100h-100v-100zM300 600h100v100h-100v-100z" />
    <glyph glyph-name="ucircumflex" unicode="&#xfb;" 
d="M200 600h100v-100h100v-400h-300v400h-100v-500h500v500h-100v100h-100v100h-100v-100zM100 500h100v100h-100v-100z" />
    <glyph glyph-name="udieresis" unicode="&#xfc;" 
d="M300 500h100v-400h-300v400h100v200h-200v-700h500v700h-200v-200z" />
    <glyph glyph-name="yacute" unicode="&#xfd;" 
d="M100 300h100v-300h100v300h-100v100h-100v100h-100v-100h100v-100zM300 300h100v100h-100v-100zM400 400h100v100h-100v-100zM200 500h100v100h-100v-100zM300 600h100v100h-100v-100z" />
    <glyph glyph-name="thorn" unicode="&#xfe;" 
d="M0 -200h100v200h300v100h-300v300h300v-300h100v300h-100v100h-300v200h-100v-900z" />
    <glyph glyph-name="ydieresis" unicode="&#xff;" 
d="M100 300h100v-300h100v300h-100v100h-100v100h100v200h-200v-300h100v-100zM300 500h100v-100h100v300h-200v-200zM300 300h100v100h-100v-100z" />
    <glyph glyph-name=".null" unicode="&#xe000;" horiz-adv-x="0" 
 />
    <glyph glyph-name="nonmarkingreturn" unicode="&#xe001;" horiz-adv-x="500" 
 />
  </font>
</defs>
</svg>
